<?xml version="1.0" standalone="no"?>
<!DOCTYPE svg PUBLIC "-//W3C//DTD SVG 20010904//EN"
 "http://www.w3.org/TR/2001/REC-SVG-20010904/DTD/svg10.dtd">
<svg version="1.0" xmlns="http://www.w3.org/2000/svg"
 width="512.000000pt" height="512.000000pt" viewBox="0 0 512.000000 512.000000"
 preserveAspectRatio="xMidYMid meet">
<metadata>
Created by potrace 1.11, written by Peter Selinger 2001-2013
</metadata>
<g transform="translate(0.000000,512.000000) scale(0.100000,-0.100000)"
fill="#000000" stroke="none">
<path d="M2365 5114 c-27 -2 -111 -13 -185 -24 -710 -105 -1348 -511 -1752
-1115 -202 -302 -340 -661 -400 -1040 -32 -201 -32 -549 0 -750 115 -729 511
-1352 1117 -1757 302 -202 661 -340 1040 -400 201 -32 549 -32 750 0 284 45
512 117 764 243 501 248 902 649 1150 1150 126 252 198 480 243 764 32 201 32
549 0 750 -115 729 -511 1352 -1117 1757 -299 200 -662 340 -1030 398 -127 20
-459 34 -580 24z m435 -1258 c320 -62 507 -212 569 -458 49 -194 32 -393 -46
-555 -64 -131 -214 -258 -375 -318 -27 -10 -48 -20 -48 -24 0 -3 151 -256 335
-561 l336 -555 -168 -3 c-149 -2 -169 -1 -180 15 -7 9 -145 243 -305 520
l-293 503 -262 0 -263 0 0 -520 0 -520 -145 0 -145 0 0 1251 0 1251 453 -5
c362 -4 469 -8 537 -21z"/>
<path d="M2100 3146 l0 -476 254 0 c334 0 434 17 559 93 133 81 205 276 178
478 -26 193 -122 297 -326 355 -49 14 -116 18 -362 22 l-303 4 0 -476z"/>
</g>
</svg>
